<svg xmlns="http://www.w3.org/2000/svg" xmlns:xlink="http://www.w3.org/1999/xlink" width="500" zoomAndPan="magnify" viewBox="0 0 375 374.999991" height="500" preserveAspectRatio="xMidYMid meet" version="1.0"><defs><clipPath id="d6238115e4"><path d="M 131 101.011719 L 244 101.011719 L 244 221 L 131 221 Z M 131 101.011719 " clip-rule="nonzero"/></clipPath><clipPath id="14d5a7df55"><path d="M 83 220 L 292 220 L 292 330.511719 L 83 330.511719 Z M 83 220 " clip-rule="nonzero"/></clipPath><clipPath id="24cb491489"><path d="M 233.578125 38.480469 L 358.828125 38.480469 L 358.828125 163.730469 L 233.578125 163.730469 Z M 233.578125 38.480469 " clip-rule="nonzero"/></clipPath></defs><g clip-path="url(#d6238115e4)"><path fill="#118e7f" d="M 187.496094 220.164062 C 218.246094 220.164062 243.257812 187.527344 243.257812 156.777344 C 243.257812 126.03125 218.246094 101.011719 187.496094 101.011719 C 156.742188 101.011719 131.726562 126.03125 131.726562 156.777344 C 131.734375 187.523438 156.746094 220.164062 187.496094 220.164062 Z M 187.496094 220.164062 " fill-opacity="1" fill-rule="nonzero"/></g><g clip-path="url(#14d5a7df55)"><path fill="#118e7f" d="M 229.359375 220.734375 C 218.542969 228.976562 205.046875 233.878906 190.429688 233.878906 L 184.558594 233.878906 C 169.9375 233.878906 156.441406 228.972656 145.628906 220.734375 C 110.308594 226.445312 83.339844 257.058594 83.339844 293.984375 C 83.339844 314.269531 129.96875 330.722656 187.496094 330.722656 C 245.015625 330.722656 291.648438 314.269531 291.648438 293.984375 C 291.648438 257.058594 264.675781 226.445312 229.359375 220.734375 Z M 229.359375 220.734375 " fill-opacity="1" fill-rule="nonzero"/></g><g clip-path="url(#24cb491489)"><path fill="#118e7f" d="M 315.515625 83.757812 C 314.328125 83.757812 313.359375 82.792969 313.359375 81.601562 C 313.359375 81.601562 313.359375 45 313.359375 45 C 313.359375 41.425781 310.464844 38.53125 306.890625 38.53125 L 285.328125 38.53125 C 281.757812 38.53125 278.859375 41.425781 278.859375 45 L 278.859375 81.601562 C 278.859375 82.792969 277.894531 83.757812 276.703125 83.757812 C 276.703125 83.757812 240.101562 83.757812 240.101562 83.757812 C 236.527344 83.757812 233.632812 86.65625 233.632812 90.226562 L 233.632812 111.789062 C 233.632812 115.363281 236.527344 118.257812 240.101562 118.257812 L 276.703125 118.257812 C 277.894531 118.257812 278.859375 119.226562 278.859375 120.414062 C 278.859375 120.414062 278.859375 157.019531 278.859375 157.019531 C 278.859375 160.59375 281.757812 163.488281 285.328125 163.488281 L 306.890625 163.488281 C 310.464844 163.488281 313.359375 160.59375 313.359375 157.019531 L 313.359375 120.414062 C 313.359375 119.226562 314.328125 118.257812 315.515625 118.257812 C 315.515625 118.257812 352.121094 118.257812 352.121094 118.257812 C 355.695312 118.257812 358.589844 115.363281 358.589844 111.789062 L 358.589844 90.226562 C 358.589844 86.65625 355.695312 83.757812 352.121094 83.757812 Z M 315.515625 83.757812 " fill-opacity="1" fill-rule="evenodd"/></g></svg>