<svg xmlns="http://www.w3.org/2000/svg" xmlns:xlink="http://www.w3.org/1999/xlink" width="500" zoomAndPan="magnify" viewBox="0 0 375 374.999991" height="500" preserveAspectRatio="xMidYMid meet" version="1.0"><defs><clipPath id="b88a0e532f"><path d="M 131 101.011719 L 244 101.011719 L 244 221 L 131 221 Z M 131 101.011719 " clip-rule="nonzero"/></clipPath><clipPath id="ae8b0865e2"><path d="M 83 220 L 292 220 L 292 330.511719 L 83 330.511719 Z M 83 220 " clip-rule="nonzero"/></clipPath><clipPath id="ec178e52cc"><path d="M 254.671875 60 L 340 60 L 340 145.726562 L 254.671875 145.726562 Z M 254.671875 60 " clip-rule="nonzero"/></clipPath><clipPath id="b9025f93fc"><path d="M 319 47.476562 L 352.921875 47.476562 L 352.921875 81 L 319 81 Z M 319 47.476562 " clip-rule="nonzero"/></clipPath></defs><g clip-path="url(#b88a0e532f)"><path fill="#118e7f" d="M 187.496094 220.164062 C 218.246094 220.164062 243.257812 187.527344 243.257812 156.777344 C 243.257812 126.03125 218.246094 101.011719 187.496094 101.011719 C 156.742188 101.011719 131.726562 126.03125 131.726562 156.777344 C 131.734375 187.523438 156.746094 220.164062 187.496094 220.164062 Z M 187.496094 220.164062 " fill-opacity="1" fill-rule="nonzero"/></g><g clip-path="url(#ae8b0865e2)"><path fill="#118e7f" d="M 229.359375 220.734375 C 218.542969 228.976562 205.046875 233.878906 190.429688 233.878906 L 184.558594 233.878906 C 169.9375 233.878906 156.441406 228.972656 145.628906 220.734375 C 110.308594 226.445312 83.339844 257.058594 83.339844 293.984375 C 83.339844 314.269531 129.96875 330.722656 187.496094 330.722656 C 245.015625 330.722656 291.648438 314.269531 291.648438 293.984375 C 291.648438 257.058594 264.675781 226.445312 229.359375 220.734375 Z M 229.359375 220.734375 " fill-opacity="1" fill-rule="nonzero"/></g><g clip-path="url(#ec178e52cc)"><path fill="#118e7f" d="M 314.804688 60.53125 L 262.148438 113.179688 C 261.695312 113.632812 261.375 114.203125 261.226562 114.828125 L 254.902344 140.933594 C 254.617188 142.117188 254.964844 143.367188 255.828125 144.226562 C 256.492188 144.890625 257.386719 145.25 258.300781 145.25 C 258.574219 145.25 258.851562 145.222656 259.125 145.152344 L 285.226562 138.832031 C 285.851562 138.679688 286.421875 138.359375 286.878906 137.90625 L 339.527344 85.253906 Z M 314.804688 60.53125 " fill-opacity="1" fill-rule="nonzero"/></g><g clip-path="url(#b9025f93fc)"><path fill="#118e7f" d="M 350.445312 63.578125 L 336.476562 49.613281 C 334.933594 48.070312 332.722656 47.355469 330.363281 47.683594 C 328.339844 47.957031 326.371094 48.964844 324.8125 50.519531 L 319.746094 55.585938 L 344.472656 80.308594 L 349.535156 75.246094 C 351.09375 73.6875 352.101562 71.714844 352.375 69.691406 C 352.691406 67.347656 351.988281 65.121094 350.445312 63.578125 Z M 350.445312 63.578125 " fill-opacity="1" fill-rule="nonzero"/></g></svg>