<svg xmlns="http://www.w3.org/2000/svg" xmlns:xlink="http://www.w3.org/1999/xlink" width="500" zoomAndPan="magnify" viewBox="0 0 375 374.999991" height="500" preserveAspectRatio="xMidYMid meet" version="1.0"><defs><clipPath id="2396bf6843"><path d="M 249 59.527344 L 332 59.527344 L 332 143 L 249 143 Z M 249 59.527344 " clip-rule="nonzero"/></clipPath><clipPath id="a69f2fc039"><path d="M 16.300781 158 L 148 158 L 148 279 L 16.300781 279 Z M 16.300781 158 " clip-rule="nonzero"/></clipPath><clipPath id="3b676b1d2b"><path d="M 43 59.527344 L 126 59.527344 L 126 143 L 43 143 Z M 43 59.527344 " clip-rule="nonzero"/></clipPath></defs><path fill="#118e7f" d="M 205.304688 191.777344 L 169.695312 191.777344 C 141.890625 191.777344 119.363281 214.304688 119.363281 242.109375 L 119.363281 299.425781 C 163.324219 315.449219 211.605469 315.449219 255.566406 299.425781 L 255.566406 242.109375 C 255.636719 214.304688 233.105469 191.777344 205.304688 191.777344 Z M 205.304688 191.777344 " fill-opacity="1" fill-rule="nonzero"/><path fill="#118e7f" d="M 228.792969 133.980469 C 228.792969 135.332031 228.726562 136.679688 228.59375 138.027344 C 228.460938 139.375 228.261719 140.710938 228 142.035156 C 227.734375 143.363281 227.40625 144.671875 227.015625 145.964844 C 226.621094 147.261719 226.167969 148.53125 225.648438 149.78125 C 225.132812 151.03125 224.554688 152.253906 223.917969 153.445312 C 223.277344 154.636719 222.585938 155.796875 221.832031 156.921875 C 221.082031 158.046875 220.277344 159.128906 219.417969 160.175781 C 218.5625 161.222656 217.652344 162.222656 216.699219 163.179688 C 215.742188 164.132812 214.742188 165.042969 213.695312 165.898438 C 212.648438 166.757812 211.566406 167.5625 210.441406 168.3125 C 209.316406 169.066406 208.15625 169.757812 206.964844 170.398438 C 205.773438 171.035156 204.550781 171.613281 203.300781 172.128906 C 202.050781 172.648438 200.78125 173.101562 199.484375 173.496094 C 198.191406 173.886719 196.882812 174.214844 195.554688 174.480469 C 194.226562 174.742188 192.890625 174.941406 191.546875 175.074219 C 190.199219 175.207031 188.851562 175.273438 187.5 175.273438 C 186.148438 175.273438 184.796875 175.207031 183.453125 175.074219 C 182.105469 174.941406 180.769531 174.742188 179.441406 174.480469 C 178.117188 174.214844 176.804688 173.886719 175.511719 173.496094 C 174.21875 173.101562 172.945312 172.648438 171.695312 172.128906 C 170.449219 171.613281 169.226562 171.035156 168.035156 170.398438 C 166.839844 169.757812 165.683594 169.066406 164.558594 168.3125 C 163.433594 167.5625 162.347656 166.757812 161.304688 165.898438 C 160.257812 165.042969 159.257812 164.132812 158.300781 163.179688 C 157.34375 162.222656 156.4375 161.222656 155.578125 160.175781 C 154.722656 159.128906 153.917969 158.046875 153.164062 156.921875 C 152.414062 155.796875 151.71875 154.636719 151.082031 153.445312 C 150.445312 152.253906 149.867188 151.03125 149.347656 149.78125 C 148.832031 148.53125 148.375 147.261719 147.984375 145.964844 C 147.589844 144.671875 147.261719 143.363281 147 142.035156 C 146.734375 140.710938 146.539062 139.375 146.40625 138.027344 C 146.273438 136.679688 146.207031 135.332031 146.207031 133.980469 C 146.207031 132.628906 146.273438 131.277344 146.40625 129.933594 C 146.539062 128.585938 146.734375 127.25 147 125.921875 C 147.261719 124.597656 147.589844 123.285156 147.984375 121.992188 C 148.375 120.699219 148.832031 119.425781 149.347656 118.175781 C 149.867188 116.929688 150.445312 115.707031 151.082031 114.515625 C 151.71875 113.320312 152.414062 112.164062 153.164062 111.039062 C 153.917969 109.914062 154.722656 108.828125 155.578125 107.785156 C 156.4375 106.738281 157.34375 105.738281 158.300781 104.78125 C 159.257812 103.824219 160.257812 102.917969 161.304688 102.058594 C 162.347656 101.203125 163.433594 100.398438 164.558594 99.644531 C 165.683594 98.894531 166.839844 98.199219 168.035156 97.5625 C 169.226562 96.925781 170.449219 96.347656 171.695312 95.828125 C 172.945312 95.3125 174.21875 94.855469 175.511719 94.464844 C 176.804688 94.070312 178.117188 93.742188 179.441406 93.480469 C 180.769531 93.214844 182.105469 93.019531 183.453125 92.886719 C 184.796875 92.753906 186.148438 92.6875 187.5 92.6875 C 188.851562 92.6875 190.199219 92.753906 191.546875 92.886719 C 192.890625 93.019531 194.226562 93.214844 195.554688 93.480469 C 196.882812 93.742188 198.191406 94.070312 199.484375 94.464844 C 200.78125 94.855469 202.050781 95.3125 203.300781 95.828125 C 204.550781 96.347656 205.773438 96.925781 206.964844 97.5625 C 208.15625 98.199219 209.316406 98.894531 210.441406 99.644531 C 211.566406 100.398438 212.648438 101.203125 213.695312 102.058594 C 214.742188 102.917969 215.742188 103.824219 216.699219 104.78125 C 217.652344 105.738281 218.5625 106.738281 219.417969 107.785156 C 220.277344 108.828125 221.082031 109.914062 221.832031 111.039062 C 222.585938 112.164062 223.277344 113.320312 223.917969 114.515625 C 224.554688 115.707031 225.132812 116.929688 225.648438 118.175781 C 226.167969 119.425781 226.621094 120.699219 227.015625 121.992188 C 227.40625 123.285156 227.734375 124.597656 228 125.921875 C 228.261719 127.25 228.460938 128.585938 228.59375 129.933594 C 228.726562 131.277344 228.792969 132.628906 228.792969 133.980469 Z M 228.792969 133.980469 " fill-opacity="1" fill-rule="nonzero"/><path fill="#118e7f" d="M 308.367188 158.632812 L 272.757812 158.632812 C 253.171875 158.632812 236.1875 169.863281 227.902344 186.230469 C 249.953125 195.199219 265.566406 216.839844 265.566406 242.039062 L 265.566406 276.691406 C 296.792969 280.664062 328.773438 277.171875 358.699219 266.28125 L 358.699219 208.964844 C 358.699219 181.164062 336.167969 158.632812 308.367188 158.632812 Z M 308.367188 158.632812 " fill-opacity="1" fill-rule="nonzero"/><g clip-path="url(#2396bf6843)"><path fill="#118e7f" d="M 331.855469 100.835938 C 331.855469 102.1875 331.789062 103.535156 331.65625 104.882812 C 331.523438 106.230469 331.324219 107.566406 331.0625 108.890625 C 330.796875 110.21875 330.46875 111.527344 330.074219 112.824219 C 329.683594 114.117188 329.226562 115.386719 328.710938 116.636719 C 328.191406 117.886719 327.617188 119.109375 326.976562 120.300781 C 326.339844 121.492188 325.644531 122.652344 324.894531 123.777344 C 324.144531 124.902344 323.339844 125.984375 322.480469 127.03125 C 321.625 128.078125 320.714844 129.078125 319.757812 130.035156 C 318.804688 130.992188 317.800781 131.898438 316.757812 132.753906 C 315.710938 133.613281 314.625 134.417969 313.503906 135.167969 C 312.378906 135.921875 311.21875 136.617188 310.027344 137.253906 C 308.832031 137.890625 307.613281 138.46875 306.363281 138.984375 C 305.113281 139.503906 303.84375 139.957031 302.546875 140.351562 C 301.253906 140.742188 299.941406 141.070312 298.617188 141.335938 C 297.289062 141.597656 295.953125 141.796875 294.609375 141.929688 C 293.261719 142.0625 291.914062 142.128906 290.5625 142.128906 C 289.207031 142.128906 287.859375 142.0625 286.511719 141.929688 C 285.167969 141.796875 283.832031 141.597656 282.503906 141.335938 C 281.179688 141.070312 279.867188 140.742188 278.574219 140.351562 C 277.28125 139.957031 276.007812 139.503906 274.757812 138.984375 C 273.507812 138.46875 272.289062 137.890625 271.09375 137.253906 C 269.902344 136.617188 268.742188 135.921875 267.621094 135.167969 C 266.496094 134.417969 265.410156 133.613281 264.363281 132.753906 C 263.320312 131.898438 262.320312 130.992188 261.363281 130.035156 C 260.40625 129.078125 259.5 128.078125 258.640625 127.03125 C 257.78125 125.984375 256.976562 124.902344 256.226562 123.777344 C 255.476562 122.652344 254.78125 121.492188 254.144531 120.300781 C 253.507812 119.109375 252.929688 117.886719 252.410156 116.636719 C 251.894531 115.386719 251.4375 114.117188 251.046875 112.824219 C 250.652344 111.527344 250.324219 110.21875 250.0625 108.890625 C 249.796875 107.566406 249.597656 106.230469 249.464844 104.882812 C 249.332031 103.535156 249.269531 102.1875 249.269531 100.835938 C 249.269531 99.484375 249.332031 98.132812 249.464844 96.789062 C 249.597656 95.441406 249.796875 94.105469 250.0625 92.78125 C 250.324219 91.453125 250.652344 90.144531 251.046875 88.847656 C 251.4375 87.554688 251.894531 86.28125 252.410156 85.035156 C 252.929688 83.785156 253.507812 82.5625 254.144531 81.371094 C 254.78125 80.175781 255.476562 79.019531 256.226562 77.894531 C 256.976562 76.769531 257.78125 75.683594 258.640625 74.640625 C 259.5 73.59375 260.40625 72.59375 261.363281 71.636719 C 262.320312 70.679688 263.320312 69.773438 264.363281 68.914062 C 265.410156 68.058594 266.496094 67.253906 267.621094 66.5 C 268.742188 65.75 269.902344 65.054688 271.09375 64.417969 C 272.289062 63.78125 273.507812 63.203125 274.757812 62.6875 C 276.007812 62.167969 277.28125 61.714844 278.574219 61.320312 C 279.867188 60.929688 281.179688 60.597656 282.503906 60.335938 C 283.832031 60.070312 285.167969 59.875 286.511719 59.742188 C 287.859375 59.609375 289.207031 59.542969 290.5625 59.542969 C 291.914062 59.542969 293.261719 59.609375 294.609375 59.742188 C 295.953125 59.875 297.289062 60.070312 298.617188 60.335938 C 299.941406 60.597656 301.253906 60.929688 302.546875 61.320312 C 303.84375 61.714844 305.113281 62.167969 306.363281 62.6875 C 307.613281 63.203125 308.832031 63.78125 310.027344 64.417969 C 311.21875 65.054688 312.378906 65.75 313.503906 66.5 C 314.625 67.253906 315.710938 68.058594 316.757812 68.914062 C 317.800781 69.773438 318.804688 70.679688 319.757812 71.636719 C 320.714844 72.59375 321.625 73.59375 322.480469 74.640625 C 323.339844 75.683594 324.144531 76.769531 324.894531 77.894531 C 325.644531 79.019531 326.339844 80.175781 326.976562 81.371094 C 327.617188 82.5625 328.191406 83.785156 328.710938 85.035156 C 329.226562 86.28125 329.683594 87.554688 330.074219 88.847656 C 330.46875 90.144531 330.796875 91.453125 331.0625 92.78125 C 331.324219 94.105469 331.523438 95.441406 331.65625 96.789062 C 331.789062 98.132812 331.855469 99.484375 331.855469 100.835938 Z M 331.855469 100.835938 " fill-opacity="1" fill-rule="nonzero"/></g><g clip-path="url(#a69f2fc039)"><path fill="#118e7f" d="M 147.097656 186.296875 C 138.808594 169.929688 121.828125 158.699219 102.242188 158.699219 L 66.632812 158.699219 C 38.828125 158.632812 16.300781 181.164062 16.300781 208.964844 L 16.300781 266.28125 C 46.292969 277.238281 78.207031 280.664062 109.433594 276.691406 L 109.433594 242.039062 C 109.433594 216.839844 125.046875 195.199219 147.097656 186.296875 Z M 147.097656 186.296875 " fill-opacity="1" fill-rule="nonzero"/></g><g clip-path="url(#3b676b1d2b)"><path fill="#118e7f" d="M 125.730469 100.835938 C 125.730469 102.1875 125.664062 103.535156 125.53125 104.882812 C 125.398438 106.230469 125.199219 107.566406 124.9375 108.890625 C 124.671875 110.21875 124.34375 111.527344 123.953125 112.824219 C 123.558594 114.117188 123.105469 115.386719 122.585938 116.636719 C 122.070312 117.886719 121.492188 119.109375 120.855469 120.300781 C 120.21875 121.492188 119.523438 122.652344 118.769531 123.777344 C 118.019531 124.902344 117.214844 125.984375 116.355469 127.03125 C 115.5 128.078125 114.59375 129.078125 113.636719 130.035156 C 112.679688 130.992188 111.679688 131.898438 110.632812 132.753906 C 109.585938 133.613281 108.503906 134.417969 107.378906 135.167969 C 106.253906 135.921875 105.09375 136.617188 103.902344 137.253906 C 102.710938 137.890625 101.488281 138.46875 100.238281 138.984375 C 98.988281 139.503906 97.71875 139.957031 96.425781 140.351562 C 95.128906 140.742188 93.820312 141.070312 92.492188 141.335938 C 91.167969 141.597656 89.832031 141.796875 88.484375 141.929688 C 87.136719 142.0625 85.789062 142.128906 84.4375 142.128906 C 83.085938 142.128906 81.734375 142.0625 80.390625 141.929688 C 79.042969 141.796875 77.707031 141.597656 76.382812 141.335938 C 75.054688 141.070312 73.746094 140.742188 72.449219 140.351562 C 71.15625 139.957031 69.882812 139.503906 68.636719 138.984375 C 67.386719 138.46875 66.164062 137.890625 64.972656 137.253906 C 63.777344 136.617188 62.621094 135.921875 61.496094 135.167969 C 60.371094 134.417969 59.285156 133.613281 58.242188 132.753906 C 57.195312 131.898438 56.195312 130.992188 55.238281 130.035156 C 54.28125 129.078125 53.375 128.078125 52.515625 127.03125 C 51.660156 125.984375 50.855469 124.902344 50.101562 123.777344 C 49.351562 122.652344 48.65625 121.492188 48.019531 120.300781 C 47.382812 119.109375 46.804688 117.886719 46.285156 116.636719 C 45.769531 115.386719 45.316406 114.117188 44.921875 112.824219 C 44.53125 111.527344 44.199219 110.21875 43.9375 108.890625 C 43.671875 107.566406 43.476562 106.230469 43.34375 104.882812 C 43.210938 103.535156 43.144531 102.1875 43.144531 100.835938 C 43.144531 99.484375 43.210938 98.132812 43.34375 96.789062 C 43.476562 95.441406 43.671875 94.105469 43.9375 92.78125 C 44.199219 91.453125 44.53125 90.144531 44.921875 88.847656 C 45.316406 87.554688 45.769531 86.28125 46.285156 85.035156 C 46.804688 83.785156 47.382812 82.5625 48.019531 81.371094 C 48.65625 80.175781 49.351562 79.019531 50.101562 77.894531 C 50.855469 76.769531 51.660156 75.683594 52.515625 74.640625 C 53.375 73.59375 54.28125 72.59375 55.238281 71.636719 C 56.195312 70.679688 57.195312 69.773438 58.242188 68.914062 C 59.285156 68.058594 60.371094 67.253906 61.496094 66.5 C 62.621094 65.75 63.777344 65.054688 64.972656 64.417969 C 66.164062 63.78125 67.386719 63.203125 68.636719 62.6875 C 69.882812 62.167969 71.15625 61.714844 72.449219 61.320312 C 73.746094 60.929688 75.054688 60.597656 76.382812 60.335938 C 77.707031 60.070312 79.042969 59.875 80.390625 59.742188 C 81.734375 59.609375 83.085938 59.542969 84.4375 59.542969 C 85.789062 59.542969 87.136719 59.609375 88.484375 59.742188 C 89.832031 59.875 91.167969 60.070312 92.492188 60.335938 C 93.820312 60.597656 95.128906 60.929688 96.425781 61.320312 C 97.71875 61.714844 98.988281 62.167969 100.238281 62.6875 C 101.488281 63.203125 102.710938 63.78125 103.902344 64.417969 C 105.09375 65.054688 106.253906 65.75 107.378906 66.5 C 108.503906 67.253906 109.585938 68.058594 110.632812 68.914062 C 111.679688 69.773438 112.679688 70.679688 113.636719 71.636719 C 114.59375 72.59375 115.5 73.59375 116.355469 74.640625 C 117.214844 75.683594 118.019531 76.769531 118.769531 77.894531 C 119.523438 79.019531 120.21875 80.175781 120.855469 81.371094 C 121.492188 82.5625 122.070312 83.785156 122.585938 85.035156 C 123.105469 86.28125 123.558594 87.554688 123.953125 88.847656 C 124.34375 90.144531 124.671875 91.453125 124.9375 92.78125 C 125.199219 94.105469 125.398438 95.441406 125.53125 96.789062 C 125.664062 98.132812 125.730469 99.484375 125.730469 100.835938 Z M 125.730469 100.835938 " fill-opacity="1" fill-rule="nonzero"/></g></svg>